<svg xmlns="http://www.w3.org/2000/svg" version="1.1" xmlns:xlink="http://www.w3.org/1999/xlink" width="512" height="512" x="0" y="0" viewBox="0 0 24 24" style="enable-background:new 0 0 512 512" xml:space="preserve" class=""><g><path d="m23.71 22.29-5.96-5.96C19.15 14.61 20 12.4 20 10c0-5.51-4.49-10-10-10S0 4.49 0 10s4.49 10 10 10c2.4 0 4.61-.85 6.33-2.25l5.96 5.96c.2.19.45.29.71.29s.51-.1.71-.29c.39-.39.39-1.03 0-1.42zM10 18c-4.07 0-7.44-3.06-7.94-7H5c.31 0 .61-.15.8-.4l1.96-2.62 2.32 5.41c.15.34.46.57.83.61H11c.33 0 .65-.17.83-.45L13.54 11H15c.55 0 1-.45 1-1s-.45-1-1-1h-2c-.33 0-.65.17-.83.45l-.98 1.46-2.27-5.3a.998.998 0 0 0-.8-.6c-.36-.05-.71.1-.92.39L4.5 9H2.06c.5-3.94 3.87-7 7.94-7 4.41 0 8 3.59 8 8s-3.59 8-8 8z" fill="#c7c7c7" opacity="1" data-original="#000000" class=""></path></g></svg>