<svg xmlns="http://www.w3.org/2000/svg" version="1.1" xmlns:xlink="http://www.w3.org/1999/xlink" width="512" height="512" x="0" y="0" viewBox="0 0 32 32" style="enable-background:new 0 0 512 512" xml:space="preserve" class=""><g><path d="M26.572 2.16H9.698A3.266 3.266 0 0 0 6.44 5.428v1.011H5.418A3.267 3.267 0 0 0 2.16 9.71v16.863a3.266 3.266 0 0 0 3.258 3.268h16.874a3.271 3.271 0 0 0 3.268-3.268v-1.011h1.012a3.272 3.272 0 0 0 3.268-3.269V5.428a3.272 3.272 0 0 0-3.268-3.268zM23.56 26.572c0 .7-.569 1.268-1.268 1.268H5.417a1.264 1.264 0 0 1-1.257-1.268V9.708c0-.7.564-1.269 1.257-1.269h16.875c.7 0 1.268.57 1.268 1.269V24.56zm4.28-4.28c0 .7-.569 1.269-1.268 1.269H25.56V9.708a3.272 3.272 0 0 0-3.268-3.269H8.44V5.428c0-.7.564-1.268 1.258-1.268h16.874c.7 0 1.268.568 1.268 1.268z" fill="#c7c7c7" opacity="1" data-original="#000000" class=""></path></g></svg>