<svg xmlns="http://www.w3.org/2000/svg" xmlns:xlink="http://www.w3.org/1999/xlink" width="200" height="200" version="1.1"><svg xmlns="http://www.w3.org/2000/svg" xmlns:xlink="http://www.w3.org/1999/xlink" version="1.1" viewBox="0 0 200 200"><rect width="200" height="200" fill="url('#gradient')"/><defs><linearGradient id="SvgjsLinearGradient1001" gradientTransform="rotate(45 0.5 0.5)"><stop offset="0%" stop-color="#0d0e0e"/><stop offset="100%" stop-color="#072a41"/></linearGradient></defs><g><g fill="#f9f8f8" stroke="#f9f8f8" stroke-width=".2"><path d="M10.73-5.36L10.73-5.21Q10.73-2.74 9.62-1.27Q8.52 0.20 6.63 0.20L6.63 0.20Q5.18 0.20 4.24-0.87L4.24-0.87L4.24 4.06L0.95 4.06L0.95-10.57L4.02-10.57L4.12-9.59Q5.07-10.76 6.61-10.76L6.61-10.76Q8.56-10.76 9.65-9.32Q10.73-7.88 10.73-5.36L10.73-5.36ZM7.44-5.06L7.44-5.41Q7.44-8.22 5.80-8.22L5.80-8.22Q4.63-8.22 4.24-7.38L4.24-7.38L4.24-3.22Q4.67-2.34 5.82-2.34L5.82-2.34Q7.39-2.34 7.44-5.06L7.44-5.06ZM11.78-4.82L11.77-5.38Q11.77-6.96 12.38-8.20Q13.00-9.43 14.15-10.10Q15.30-10.76 16.86-10.76L16.86-10.76Q19.23-10.76 20.60-9.29Q21.96-7.82 21.96-5.29L21.96-5.29L21.96-5.18Q21.96-2.71 20.59-1.25Q19.22 0.20 16.88 0.20L16.88 0.20Q14.62 0.20 13.25-1.16Q11.88-2.51 11.78-4.82L11.78-4.82ZM15.07-5.77L15.06-5.18Q15.06-3.71 15.52-3.03Q15.98-2.34 16.88-2.34L16.88-2.34Q18.63-2.34 18.67-5.05L18.67-5.05L18.67-5.38Q18.67-8.22 16.86-8.22L16.86-8.22Q15.21-8.22 15.07-5.77L15.07-5.77ZM28.95-2.97L28.95-2.97Q28.95-3.39 28.51-3.64Q28.07-3.90 26.84-4.17Q25.61-4.44 24.80-4.89Q24.00-5.33 23.58-5.97Q23.16-6.60 23.16-7.42L23.16-7.42Q23.16-8.88 24.37-9.82Q25.57-10.76 27.51-10.76L27.51-10.76Q29.60-10.76 30.87-9.81Q32.14-8.87 32.14-7.32L32.14-7.32L28.84-7.32Q28.84-8.59 27.50-8.59L27.50-8.59Q26.98-8.59 26.63-8.31Q26.28-8.02 26.28-7.59L26.28-7.59Q26.28-7.15 26.71-6.88Q27.14-6.60 28.08-6.43Q29.02-6.25 29.74-6.01L29.74-6.01Q32.12-5.19 32.12-3.07L32.12-3.07Q32.12-1.62 30.83-0.71Q29.55 0.20 27.51 0.20L27.51 0.20Q26.15 0.20 25.09-0.29Q24.02-0.78 23.43-1.62Q22.83-2.46 22.83-3.39L22.83-3.39L25.91-3.39Q25.93-2.66 26.40-2.32Q26.87-1.98 27.60-1.98L27.60-1.98Q28.27-1.98 28.61-2.26Q28.95-2.53 28.95-2.97ZM34.20-13.19L37.49-13.19L37.49-10.57L39.23-10.57L39.23-8.28L37.49-8.28L37.49-3.45Q37.49-2.85 37.71-2.62Q37.92-2.38 38.55-2.38L38.55-2.38Q39.04-2.38 39.38-2.44L39.38-2.44L39.38-0.09Q38.49 0.20 37.52 0.20L37.52 0.20Q35.82 0.20 35.01-0.61Q34.20-1.41 34.20-3.04L34.20-3.04L34.20-8.28L32.85-8.28L32.85-10.57L34.20-10.57L34.20-13.19ZM44.55 0L41.25 0L41.25-8.28L39.72-8.28L39.72-10.57L41.25-10.57L41.25-11.41Q41.25-13.21 42.31-14.21Q43.38-15.21 45.30-15.21L45.30-15.21Q46.01-15.21 46.85-15L46.85-15L46.86-12.58Q46.55-12.67 46.04-12.67L46.04-12.67Q44.55-12.67 44.55-11.38L44.55-11.38L44.55-10.57L46.61-10.57L46.61-8.28L44.55-8.28L44.55 0ZM51.24-15L51.24 0L47.94 0L47.94-15L51.24-15ZM52.86-4.82L52.85-5.38Q52.85-6.96 53.47-8.20Q54.08-9.43 55.23-10.10Q56.39-10.76 57.94-10.76L57.94-10.76Q60.31-10.76 61.68-9.29Q63.05-7.82 63.05-5.29L63.05-5.29L63.05-5.18Q63.05-2.71 61.67-1.25Q60.30 0.20 57.96 0.20L57.96 0.20Q55.70 0.20 54.34-1.16Q52.97-2.51 52.86-4.82L52.86-4.82ZM56.15-5.77L56.14-5.18Q56.14-3.71 56.60-3.03Q57.06-2.34 57.96-2.34L57.96-2.34Q59.72-2.34 59.76-5.05L59.76-5.05L59.76-5.38Q59.76-8.22 57.94-8.22L57.94-8.22Q56.29-8.22 56.15-5.77L56.15-5.77ZM71.96-10.57L73.62-4.34L74.69-10.57L77.84-10.57L75.35 0L72.57 0L70.82-6.27L69.06 0L66.28 0L63.79-10.57L66.94-10.57L67.99-4.19L69.67-10.57L71.96-10.57Z" transform="matrix(2.3408686817373634,0,0,2.3408686817373634,7.781947378219613,113.0466317074354)"/></g></g></svg><style>@media (prefers-color-scheme:light){:root{filter:none}}@media (prefers-color-scheme:dark){:root{filter:none}}</style></svg>